<?xml version="1.0" encoding="utf-8"?>
<!-- Generator: Adobe Illustrator 18.1.1, SVG Export Plug-In . SVG Version: 6.00 Build 0)  -->
<!DOCTYPE svg PUBLIC "-//W3C//DTD SVG 1.1//EN" "http://www.w3.org/Graphics/SVG/1.1/DTD/svg11.dtd">
<svg version="1.1" id="Layer_1" xmlns="http://www.w3.org/2000/svg" xmlns:xlink="http://www.w3.org/1999/xlink" x="0px" y="0px"
	 viewBox="6 -81 512 512" enable-background="new 6 -81 512 512" xml:space="preserve">
<g transform="translate(0.000000,512.000000) scale(0.100000,-0.100000)">
	<path d="M1737.7,5187c-220.6-31.8-453.7-105.7-664-211.5c-134.2-67.1-332-189.9-368.4-227.4c-13.6-15.9-58-98.9-97.8-186.5
		c-318.4-697-500.3-1446.3-536.7-2204.7L64,2196.6l69.4-86.4c249-310.4,635.6-507.1,1101.8-560.6c83-10.2,155.8-14.8,161.5-11.4
		c27.3,17.1,285.4,350.2,277.4,358.2c-5.7,4.5-38.7,17.1-72.8,28.4c-100.1,31.8-236.5,100.1-351.3,176.2
		c-104.6,68.2-278.6,228.5-308.1,283.1l-13.6,27.3l37.5-22.7c354.8-216,731.1-353.6,1180.2-432.1c130.8-21.6,220.6-29.6,418.4-34.1
		c410.5-10.2,719.7,35.2,1066.5,154.6c274,95.5,469.6,184.2,634.5,287.7c29.6,19.3,56.9,31.8,60.3,28.4
		c13.6-13.6-196.7-214.9-292.2-280.8c-106.9-72.8-288.8-164.9-400.2-202.4c-35.2-11.4-68.2-23.9-70.5-27.3
		c-10.2-9.1,269.5-350.2,287.7-350.2c43.2,1.1,299,36.4,360.4,50c219.4,51.2,421.8,138.7,602.6,261.5
		c108,73.9,274,230.8,328.6,311.5l34.1,48.9l-14.8,229.7c-37.5,602.6-147.8,1132.5-355.9,1701c-71.6,197.8-222.9,544.6-257,592.4
		c-51.2,71.6-393.4,266.1-604.9,344.5c-141,52.3-363.8,105.7-504.8,121.7l-112.6,13.6l-33-34.1l-33-33l122.8-43.2
		c242.2-84.1,519.6-212.6,684.5-316.1c97.8-61.4,263.8-180.8,258.1-186.5c-2.3-2.3-60.3,22.7-127.3,56.9
		c-529.9,264.9-1184.8,399.1-1764.7,361.6c-600.3-39.8-1039.2-148.9-1482.7-368.4c-68.2-34.1-122.8-58-122.8-53.4
		c0,9.1,143.3,112.6,249,180.8c176.2,112.6,482.1,252.4,740.2,336.6c71.6,23.9,133,45.5,135.3,47.8c2.3,1.1-4.5,13.6-15.9,26.2
		C1912.8,5208.6,1891.2,5209.7,1737.7,5187z M1965.1,3546.2c126.2-48.9,229.7-151.2,269.5-268.3c26.2-78.5,22.7-238.8-6.8-335.4
		c-68.2-220.6-247.9-353.6-458.2-338.8c-258.1,19.3-453.7,286.5-410.5,565.1c29.6,191,159.2,344.5,330.9,394.5
		C1761.6,3583.8,1886.6,3575.8,1965.1,3546.2z M3545.5,3550.8c171.7-59.1,297.9-253.6,297.9-458.2c0-202.4-101.2-369.5-275.2-453.7
		c-54.6-27.3-76.2-30.7-170.6-31.8c-93.2,0-117.1,4.5-174,30.7c-185.3,86.4-302.4,317.2-269.5,529.9
		C3002,3467.8,3276.1,3645.2,3545.5,3550.8z"/>
</g>
</svg>
